<svg width="317" height="115" viewBox="0 0 317 115" fill="none" xmlns="http://www.w3.org/2000/svg">
<path d="M2 113.5L36.0864 99.6678C36.3613 99.5563 36.6229 99.4145 36.8665 99.245L42.7844 95.1284C45.2016 93.447 49.7205 93.0547 50.5085 90.2176C55.0718 73.7863 63.2875 4.44348 67.5 2.49924C71.3749 0.710811 86.8739 17.7841 96.2454 25.9119C98.7472 28.0817 101.721 34.5978 100.833 37.7883L87.0219 87.4347C86.0764 90.8336 89.674 93.7032 92.7776 92.0255L103 86.5L134.789 72.6202C136.831 71.7286 137.751 69.3402 136.835 67.3092L121.701 33.7693C120.771 31.7081 121.733 29.2864 123.824 28.4254L150.627 17.389C152.538 16.6021 154.734 17.4008 155.693 19.2317L163.272 33.7017C164.246 35.5602 166.49 36.3507 168.413 35.5127L231.583 7.98889C233.508 7.15013 235.754 7.94267 236.726 9.80385L250.727 36.6068C251.719 38.5044 254.028 39.2851 255.968 38.378L283.5 25.4999L290.961 22.6576C292.632 22.0211 294.5 22.8758 295.111 24.5561V24.5561C295.629 25.9802 297.074 26.8465 298.574 26.6322L304.987 25.7161C305.961 25.5769 306.953 25.8018 307.772 26.3477L315.5 31.4999" stroke="#38C29B" stroke-width="3" stroke-linecap="round"/>
</svg>
