<svg width="216" height="82" viewBox="0 0 216 82" fill="none" xmlns="http://www.w3.org/2000/svg">
<path d="M2 80.4999L33.7892 66.6201C35.8313 65.7285 36.7511 63.3402 35.8347 61.3092L20.7008 27.7693C19.7708 25.7081 20.7329 23.2864 22.8238 22.4254L49.6265 11.389C51.5377 10.6021 53.7338 11.4008 54.6928 13.2317L62.2723 27.7017C63.2459 29.5602 65.49 30.3507 67.4134 29.5127L130.583 1.98889C132.508 1.15013 134.754 1.94267 135.726 3.80384L149.727 30.6068C150.719 32.5044 153.028 33.2851 154.968 32.378L182.5 19.4999L189.961 16.6576C191.632 16.0211 193.5 16.8758 194.111 18.5561V18.5561C194.629 19.9802 196.074 20.8465 197.574 20.6322L203.987 19.7161C204.961 19.5769 205.953 19.8018 206.772 20.3477L214.5 25.4999" stroke="#4F45E4" stroke-width="3" stroke-linecap="round"/>
</svg>
